<svg width="32" height="31" viewBox="0 0 32 31" fill="none" xmlns="http://www.w3.org/2000/svg">
<path fill-rule="evenodd" clip-rule="evenodd" d="M7.01425 17.486L13.7724 17.0131C14.0582 16.993 14.3432 17.0614 14.5887 17.2089C14.8343 17.3564 15.0285 17.5759 15.1451 17.8375C15.2616 18.0992 15.2949 18.3904 15.2402 18.6716C15.1856 18.9528 15.0458 19.2103 14.8398 19.4093L9.96666 24.1155C9.82327 24.2535 9.65207 24.3594 9.4645 24.426C9.27692 24.4926 9.0773 24.5184 8.87896 24.5016C8.68061 24.4849 8.48813 24.426 8.31436 24.329C8.14059 24.2319 7.98953 24.0989 7.87129 23.9387C6.81802 22.5191 6.0909 20.8846 5.74178 19.1518C5.70294 18.9573 5.706 18.7567 5.75076 18.5635C5.79552 18.3703 5.88095 18.1888 6.00135 18.0312C6.12176 17.8735 6.27438 17.7434 6.44903 17.6494C6.62369 17.5554 6.81637 17.4997 7.01425 17.486V17.486Z" fill="#FFE54C"/>
<path fill-rule="evenodd" clip-rule="evenodd" d="M15.3932 27.1227L16.8011 20.4969C16.8607 20.2167 17.005 19.9617 17.2145 19.7663C17.424 19.571 17.6885 19.4448 17.9722 19.4049C18.2559 19.365 18.5449 19.4134 18.8001 19.5434C19.0554 19.6734 19.2644 19.8788 19.399 20.1317L22.5803 26.1149C22.6736 26.2906 22.7283 26.4843 22.7408 26.6829C22.7533 26.8814 22.7232 27.0804 22.6526 27.2664C22.5819 27.4525 22.4724 27.6213 22.3313 27.7615C22.1902 27.9018 22.0208 28.0104 21.8343 28.0799C20.1794 28.6965 18.4097 28.9441 16.649 28.8056C16.4509 28.7899 16.2584 28.7321 16.0844 28.636C15.9104 28.5399 15.7589 28.4078 15.64 28.2485C15.5211 28.0893 15.4376 27.9064 15.395 27.7123C15.3525 27.5181 15.3519 27.3171 15.3932 27.1227V27.1227Z" fill="#FFE54C"/>
<path fill-rule="evenodd" clip-rule="evenodd" d="M21.35 15.9482L27.9757 14.5402C28.1701 14.4989 28.3711 14.4995 28.5652 14.542C28.7593 14.5846 28.9422 14.6681 29.1014 14.7869C29.2607 14.9058 29.3928 15.0572 29.4889 15.2312C29.585 15.4052 29.6428 15.5977 29.6585 15.7958C29.7971 17.5565 29.5495 19.3263 28.9329 20.9813C28.8634 21.1678 28.7549 21.3372 28.6146 21.4783C28.4743 21.6194 28.3055 21.729 28.1195 21.7996C27.9334 21.8702 27.7345 21.9003 27.5359 21.8878C27.3373 21.8754 27.1436 21.8206 26.9679 21.7273L20.9848 18.546C20.7319 18.4115 20.5265 18.2025 20.3964 17.9472C20.2664 17.692 20.2181 17.4029 20.2579 17.1192C20.2978 16.8356 20.424 16.571 20.6194 16.3616C20.8147 16.1521 21.0698 16.0077 21.35 15.9482V15.9482Z" fill="#FFE54C"/>
<path fill-rule="evenodd" clip-rule="evenodd" d="M24.9685 9.11359L20.2626 13.9865C20.0636 14.1925 19.806 14.3323 19.5249 14.3869C19.2437 14.4416 18.9525 14.4084 18.6908 14.2918C18.4292 14.1753 18.2097 13.9811 18.0622 13.7356C17.9147 13.49 17.8463 13.205 17.8663 12.9193L18.3393 6.16117C18.353 5.96339 18.4087 5.7708 18.5027 5.59623C18.5967 5.42167 18.7268 5.26913 18.8843 5.14877C19.0419 5.02841 19.2233 4.943 19.4164 4.89821C19.6095 4.85343 19.81 4.85031 20.0044 4.88905C21.7373 5.23791 23.3719 5.96478 24.7916 7.01784C24.9518 7.13606 25.0849 7.28712 25.182 7.46091C25.2791 7.63471 25.3381 7.82724 25.3548 8.02563C25.3716 8.22402 25.3458 8.4237 25.2791 8.61132C25.2125 8.79894 25.1066 8.97018 24.9685 9.11359Z" fill="#FFE54C"/>
<path fill-rule="evenodd" clip-rule="evenodd" d="M3.89033 3.03736C3.04734 3.87959 2.28334 4.79734 1.60793 5.77908C1.49923 5.93782 1.42454 6.11732 1.38855 6.30631C1.35256 6.4953 1.35605 6.68969 1.39881 6.87726C1.44156 7.06483 1.52264 7.24154 1.63697 7.39627C1.7513 7.551 1.8964 7.68041 2.06314 7.77636L13.0872 14.1411C13.3533 14.2947 13.6626 14.3562 13.9672 14.3161C14.2719 14.276 14.5548 14.1364 14.772 13.9192C14.9893 13.7019 15.1288 13.419 15.1689 13.1144C15.2091 12.8098 15.1476 12.5004 14.994 12.2343L8.629 1.20986C8.53305 1.04311 8.40365 0.898008 8.24892 0.783675C8.0942 0.669343 7.9175 0.588249 7.72992 0.545491C7.54235 0.502734 7.34796 0.499236 7.15897 0.535219C6.96998 0.571201 6.79048 0.645885 6.63174 0.754577C5.65011 1.43015 4.73247 2.19427 3.89033 3.03736V3.03736Z" fill="#FFE54C"/>
</svg>
