<svg width="156" height="151" viewBox="0 0 156 151" fill="none" xmlns="http://www.w3.org/2000/svg">
<path fill-rule="evenodd" clip-rule="evenodd" d="M34.1559 85.1478L67.0648 82.8448C68.4562 82.7472 69.844 83.0801 71.0397 83.7983C72.2355 84.5165 73.1813 85.5852 73.7489 86.8594C74.3164 88.1336 74.4782 89.5515 74.2122 90.9208C73.9463 92.29 73.2655 93.5443 72.2622 94.5134L48.5327 117.43C47.8344 118.102 47.0008 118.617 46.0874 118.942C45.174 119.266 44.2019 119.392 43.2361 119.31C42.2703 119.229 41.333 118.942 40.4868 118.469C39.6406 117.997 38.9051 117.349 38.3293 116.569C33.2004 109.656 29.6597 101.697 27.9597 93.2592C27.7705 92.312 27.7854 91.3354 28.0034 90.3945C28.2214 89.4536 28.6374 88.5699 29.2237 87.8024C29.81 87.0348 30.5531 86.4011 31.4036 85.9434C32.2541 85.4856 33.1924 85.2144 34.1559 85.1478V85.1478Z" fill="#FFE54C"/>
<path fill-rule="evenodd" clip-rule="evenodd" d="M74.9567 132.073L81.8126 99.8093C82.1027 98.4449 82.8054 97.2029 83.8256 96.2516C84.8457 95.3003 86.1338 94.6859 87.515 94.4917C88.8963 94.2975 90.3039 94.533 91.5467 95.1661C92.7896 95.7992 93.8076 96.7994 94.4626 98.0309L109.954 127.166C110.408 128.022 110.675 128.965 110.736 129.932C110.796 130.899 110.65 131.867 110.306 132.773C109.962 133.679 109.429 134.501 108.742 135.184C108.055 135.867 107.229 136.396 106.322 136.734C98.2628 139.737 89.6454 140.943 81.072 140.268C80.1071 140.192 79.1697 139.91 78.3223 139.442C77.475 138.975 76.7372 138.331 76.1584 137.556C75.5795 136.78 75.1729 135.89 74.9657 134.944C74.7584 133.999 74.7554 133.02 74.9567 132.073V132.073Z" fill="#FFE54C"/>
<path fill-rule="evenodd" clip-rule="evenodd" d="M103.964 77.6592L136.227 70.8032C137.174 70.6019 138.153 70.605 139.098 70.8122C140.043 71.0193 140.933 71.4259 141.709 72.0046C142.485 72.5833 143.128 73.3209 143.596 74.168C144.063 75.0152 144.345 75.9524 144.422 76.9172C145.097 85.491 143.891 94.1088 140.889 102.168C140.55 103.076 140.021 103.901 139.338 104.588C138.655 105.275 137.833 105.809 136.927 106.153C136.021 106.496 135.053 106.643 134.085 106.582C133.118 106.522 132.175 106.255 131.32 105.801L102.185 90.3094C100.954 89.6544 99.9534 88.6364 99.3202 87.3935C98.687 86.1507 98.4516 84.7431 98.6458 83.3618C98.8399 81.9805 99.4544 80.6923 100.406 79.6722C101.357 78.652 102.599 77.9493 103.964 77.6592V77.6592Z" fill="#FFE54C"/>
<path fill-rule="evenodd" clip-rule="evenodd" d="M121.584 44.3784L98.6685 68.1069C97.6994 69.1101 96.4452 69.7909 95.076 70.0569C93.7068 70.3229 92.2889 70.1612 91.0148 69.5938C89.7406 69.0263 88.6719 68.0806 87.9536 66.885C87.2354 65.6894 86.9023 64.3017 86.9997 62.9103L89.3028 30.0017C89.3697 29.0386 89.641 28.1008 90.0987 27.2507C90.5564 26.4007 91.1899 25.6579 91.9571 25.0718C92.7242 24.4857 93.6075 24.0698 94.5479 23.8518C95.4884 23.6337 96.4646 23.6185 97.4114 23.8072C105.85 25.5059 113.809 29.0454 120.722 34.1732C121.502 34.7489 122.15 35.4845 122.623 36.3308C123.096 37.1771 123.383 38.1146 123.465 39.0806C123.546 40.0467 123.421 41.019 123.096 41.9326C122.772 42.8463 122.256 43.6801 121.584 44.3784Z" fill="#FFE54C"/>
<path fill-rule="evenodd" clip-rule="evenodd" d="M18.9439 14.7904C14.8389 18.8916 11.1187 23.3606 7.82978 28.1411C7.30047 28.9141 6.93677 29.7882 6.76152 30.7084C6.58627 31.6287 6.60328 32.5753 6.81145 33.4887C7.01963 34.4021 7.41448 35.2625 7.9712 36.016C8.52792 36.7694 9.23447 37.3996 10.0464 37.8668L63.7276 68.8597C65.0234 69.6076 66.5298 69.9072 68.0132 69.7118C69.4966 69.5165 70.8741 68.8371 71.9321 67.7792C72.9901 66.7212 73.6694 65.3438 73.8648 63.8604C74.0603 62.377 73.7608 60.8706 73.0128 59.5748L42.0187 5.89139C41.5515 5.07941 40.9214 4.37284 40.1679 3.8161C39.4145 3.25936 38.5541 2.86448 37.6407 2.65627C36.7273 2.44806 35.7807 2.43103 34.8605 2.60625C33.9402 2.78146 33.0661 3.14513 32.2931 3.67441C27.5131 6.96408 23.0446 10.685 18.9439 14.7904V14.7904Z" fill="#FFE54C"/>
</svg>
